<svg width="36" height="21" viewBox="0 0 36 21" fill="none" xmlns="http://www.w3.org/2000/svg">
<g opacity="0.34">
<path fill-rule="evenodd" clip-rule="evenodd" d="M34.982 5.51868C35.4756 5.51868 35.8757 5.92245 35.8757 6.42053C35.8757 11.9256 32.6881 16.6935 28.0778 18.9432L28.7926 19.2448C29.248 19.4369 29.4628 19.9651 29.2725 20.4247C29.1292 20.7705 28.7972 20.9789 28.4477 20.9789C28.3328 20.9789 28.216 20.9565 28.1034 20.909L25.6192 19.8609C24.496 20.1606 23.3173 20.321 22.102 20.321H13.7738C12.7481 20.321 11.7486 20.2063 10.7863 19.9907L8.60975 20.909C8.49715 20.9564 8.38034 20.9789 8.26545 20.9789C7.91592 20.9789 7.584 20.7706 7.44064 20.4247C7.2503 19.9651 7.46515 19.4369 7.92051 19.2448L8.19562 19.1287C3.37213 16.9639 0 12.0825 0 6.42053C0 5.92245 0.400085 5.51868 0.893617 5.51868H3.61609V0.926255C3.61609 0.428181 4.01617 0.0244141 4.5097 0.0244141H9.10545C9.59898 0.0244141 9.99906 0.428181 9.99906 0.926255V3.51196C9.99906 4.01003 9.59898 4.4138 9.10545 4.4138C8.61191 4.4138 8.21183 4.01003 8.21183 3.51196V1.8281H5.40332V5.51868H34.982ZM13.774 18.5173H22.1021C28.4109 18.5173 33.5971 13.5731 34.0558 7.32224H1.82048C2.27903 13.573 7.4652 18.5173 13.774 18.5173Z" fill="black"/>
</g>
</svg>
