<svg width="36" height="24" viewBox="0 0 36 24" fill="none" xmlns="http://www.w3.org/2000/svg">
<g opacity="0.34">
<path fill-rule="evenodd" clip-rule="evenodd" d="M32.4963 9.27869V9.31648C34.2289 9.50546 35.8845 10.6393 36 13.2472V17.6692C36 18.4251 35.384 19.0299 34.6139 19.0299H34.1519V22.5826C34.1519 23.3385 33.5358 23.9433 32.7658 23.9433H31.4567C30.6866 23.9433 30.0706 23.3385 30.0706 22.5826V19.0299H5.92941V22.5826C5.92941 23.3385 5.31337 23.9433 4.54332 23.9433H3.23422C2.46417 23.9433 1.84813 23.3385 1.84813 22.5826V19.0677H1.3861C0.616043 19.0677 0 18.4629 0 17.707V13.2472C0 10.6393 1.65561 9.50546 3.38824 9.31648V9.27869V3.5716C3.38824 0.963727 5.23636 0.0566406 6.96898 0.0566406H28.9155C30.6481 0.0566406 32.4963 1.00152 32.4963 3.5716V9.27869ZM4.77451 3.5716H4.6975V9.27869H5.96809V6.02829C5.96809 5.27239 6.58413 4.66766 7.35419 4.66766H15.8248C16.5948 4.66766 17.2109 5.27239 17.2109 6.02829V9.27869H18.828V6.02829C18.828 5.27239 19.444 4.66766 20.2141 4.66766H28.6847C29.4547 4.66766 30.0708 5.27239 30.0708 6.02829V9.27869H31.1103V3.5716C31.1103 1.79522 29.9168 1.41727 28.9157 1.41727H6.96916C5.96809 1.41727 4.77451 1.79522 4.77451 3.5716ZM28.6845 6.0283V9.27869H20.2139V6.0283H28.6845ZM15.9014 9.27869V6.0283H7.43084V9.27869H15.9014ZM4.50464 22.5826H3.19555V19.0299H4.50464V22.5826ZM31.3797 22.5826H32.6888V19.0299H31.3797V22.5826ZM34.4984 17.707H32.6888H31.3797H4.50481H3.19572H1.34759V15.7039H34.4984V17.707ZM1.34759 14.3433H34.4984V13.2472C34.4984 10.9795 32.8428 10.6393 31.8417 10.6393H31.1102H28.6845H20.2139H15.8631H7.39251H4.73583H4.00428C3.04171 10.6393 1.34759 10.9795 1.34759 13.2472V14.3433Z" fill="black"/>
</g>
</svg>
