<svg width="42" height="26" viewBox="0 0 42 26" fill="none" xmlns="http://www.w3.org/2000/svg">
<g opacity="0.34">
<path fill-rule="evenodd" clip-rule="evenodd" d="M40.9545 7.82071H22.4952V4.78981H22.9403C23.4526 4.78981 23.8678 4.38034 23.8678 3.87524V0.915549C23.8678 0.410444 23.4526 0.000976562 22.9403 0.000976562H0.927445C0.41523 0.000976562 0 0.410444 0 0.915549V3.87524C0 4.38034 0.41523 4.78981 0.927445 4.78981H1.37262V24.3785C1.37262 24.8836 1.78785 25.2931 2.30006 25.2931H21.5677C22.0799 25.2931 22.4952 24.8836 22.4952 24.3785V12.6095H37.4009V24.3785C37.4009 24.8836 37.8162 25.2931 38.3284 25.2931C38.8406 25.2931 39.2558 24.8836 39.2558 24.3785V12.6095H40.9545C41.4667 12.6095 41.882 12.2001 41.882 11.695V8.73528C41.882 8.23004 41.4669 7.82071 40.9545 7.82071ZM40.0269 10.7804H22.495V9.64985H40.0269V10.7804ZM1.85489 1.83012V2.96066H2.30006H21.5679H22.013V1.83012H1.85489ZM3.22763 4.78981H20.6404V8.73528V11.695V23.464H15.1706V17.0412C15.1706 16.5361 14.7554 16.1266 14.2432 16.1266H9.62501C9.11279 16.1266 8.69756 16.5361 8.69756 17.0412V23.464H3.22763V4.78981ZM10.5523 23.464H13.3156V17.9557H10.5523V23.464Z" fill="black"/>
<path fill-rule="evenodd" clip-rule="evenodd" d="M34.9489 18.398V16.6142C34.9489 15.3892 33.9383 14.3926 32.696 14.3926H27.4195C26.1773 14.3926 25.1666 15.3892 25.1666 16.6142V18.398C24.3967 18.6743 23.8445 19.4012 23.8445 20.2547V23.8853C23.8445 24.3904 24.2597 24.7999 24.7719 24.7999H25.3034V24.9679C25.3034 25.473 25.7186 25.8825 26.2308 25.8825C26.743 25.8825 27.1582 25.473 27.1582 24.9679V24.7999H32.9574V24.9679C32.9574 25.473 33.3727 25.8825 33.8849 25.8825C34.3971 25.8825 34.8123 25.473 34.8123 24.9679V24.7999H35.3437C35.856 24.7999 36.2712 24.3904 36.2712 23.8853V20.2547C36.2711 19.4012 35.7188 18.6743 34.9489 18.398ZM25.6994 22.9706V20.2546C25.6994 20.1729 25.7668 20.1064 25.8496 20.1064H34.2659C34.3487 20.1064 34.4161 20.1729 34.4161 20.2546V22.9706H25.6994ZM32.696 16.2217H27.4195C27.2001 16.2217 27.0215 16.3979 27.0215 16.6142V18.2773H33.094V16.6142C33.094 16.3979 32.9154 16.2217 32.696 16.2217Z" fill="black"/>
<path fill-rule="evenodd" clip-rule="evenodd" d="M27.0849 21.0322C26.8411 21.0322 26.6025 21.1289 26.4291 21.3001C26.2568 21.4699 26.1575 21.7064 26.1575 21.9468C26.1575 22.1872 26.2568 22.4224 26.4291 22.5935C26.6026 22.7634 26.8411 22.8614 27.0849 22.8614C27.33 22.8614 27.5684 22.7634 27.7406 22.5935C27.913 22.4237 28.0124 22.1872 28.0124 21.9468C28.0124 21.7051 27.913 21.4699 27.7406 21.3001C27.5684 21.1289 27.3299 21.0322 27.0849 21.0322Z" fill="black"/>
<path fill-rule="evenodd" clip-rule="evenodd" d="M33.0297 21.0322C32.7858 21.0322 32.5473 21.1289 32.3739 21.3001C32.2017 21.4699 32.1023 21.7051 32.1023 21.9468C32.1023 22.1872 32.2017 22.4224 32.3739 22.5935C32.5475 22.7634 32.7858 22.8614 33.0297 22.8614C33.2735 22.8614 33.5132 22.7634 33.6854 22.5935C33.8578 22.4224 33.9572 22.1872 33.9572 21.9468C33.9572 21.7051 33.8578 21.4699 33.6854 21.3001C33.5132 21.1289 33.2748 21.0322 33.0297 21.0322Z" fill="black"/>
<path fill-rule="evenodd" clip-rule="evenodd" d="M7.42671 7.45996C6.9145 7.45996 6.49927 7.86943 6.49927 8.37453V10.3032C6.49927 10.8083 6.9145 11.2178 7.42671 11.2178C7.93892 11.2178 8.35415 10.8083 8.35415 10.3032V8.37453C8.35415 7.86943 7.93892 7.45996 7.42671 7.45996V7.45996Z" fill="black"/>
<path fill-rule="evenodd" clip-rule="evenodd" d="M11.9338 11.2178C12.446 11.2178 12.8612 10.8083 12.8612 10.3032V8.37453C12.8612 7.86943 12.446 7.45996 11.9338 7.45996C11.4216 7.45996 11.0063 7.86943 11.0063 8.37453V10.3032C11.0063 10.8083 11.4216 11.2178 11.9338 11.2178Z" fill="black"/>
<path fill-rule="evenodd" clip-rule="evenodd" d="M16.4411 11.2178C16.9533 11.2178 17.3686 10.8083 17.3686 10.3032V8.37453C17.3686 7.86943 16.9533 7.45996 16.4411 7.45996C15.9289 7.45996 15.5137 7.86943 15.5137 8.37453V10.3032C15.5137 10.8083 15.9289 11.2178 16.4411 11.2178Z" fill="black"/>
</g>
</svg>
