<svg width="35" height="24" viewBox="0 0 35 24" fill="none" xmlns="http://www.w3.org/2000/svg">
<g opacity="0.34">
<path fill-rule="evenodd" clip-rule="evenodd" d="M33.9057 0.0678711H0.976096C0.437012 0.0678711 0 0.495235 0 1.02242V4.28137C0 4.80855 0.437012 5.23592 0.976096 5.23592C1.51518 5.23592 1.95219 4.80855 1.95219 4.28137V1.97696H25.7254V3.69433C25.7254 4.22151 26.1624 4.64887 26.7015 4.64887C27.2406 4.64887 27.6776 4.22151 27.6776 3.69433V1.97696H32.9296V11.0559H16.0175V7.82369C16.0175 7.29651 15.5804 6.86915 15.0414 6.86915C14.5023 6.86915 14.0653 7.29651 14.0653 7.82369V16.1972C14.0653 16.7244 14.5023 17.1518 15.0414 17.1518C15.5804 17.1518 16.0175 16.7244 16.0175 16.1972V12.965H32.9296V22.044H27.6776V20.3266C27.6776 19.7994 27.2406 19.3721 26.7015 19.3721C26.1624 19.3721 25.7254 19.7994 25.7254 20.3266V22.044H1.95219V9.66828C1.95219 9.1411 1.51518 8.71374 0.976096 8.71374C0.437012 8.71374 0 9.1411 0 9.66828V22.9985C0 23.5257 0.437012 23.9531 0.976096 23.9531H33.9057C34.4447 23.9531 34.8818 23.5257 34.8818 22.9985V1.02242C34.8818 0.495235 34.4449 0.0678711 33.9057 0.0678711Z" fill="black"/>
</g>
</svg>
