<svg width="128" height="22" viewBox="0 0 128 22" fill="none" xmlns="http://www.w3.org/2000/svg">
<path fill-rule="evenodd" clip-rule="evenodd" d="M7.05621 13.6884C7.96821 13.6884 8.69722 13.4264 9.24321 12.9054C9.78922 12.3824 10.0622 11.6484 10.0622 10.7004C10.0622 9.75139 9.78922 9.01639 9.24321 8.49539C8.69722 7.97239 7.96821 7.71139 7.05621 7.71139H5.27421V13.6884H7.05621ZM1.02621 4.40039H7.23621C8.64021 4.40039 9.87921 4.65539 10.9532 5.16539C12.0272 5.67439 12.8612 6.40439 13.4552 7.35139C14.0492 8.29939 14.3462 9.41639 14.3462 10.7004C14.3462 11.9844 14.0492 13.1004 13.4552 14.0474C12.8612 14.9964 12.0272 15.7244 10.9532 16.2354C9.87921 16.7454 8.64021 17.0004 7.23621 17.0004H1.02621V4.40039Z" fill="#2A2A2A"/>
<mask id="mask0" mask-type="alpha" maskUnits="userSpaceOnUse" x="0" y="0" width="128" height="22">
<path fill-rule="evenodd" clip-rule="evenodd" d="M0 22H128V0H0V22Z" fill="white"/>
</mask>
<g mask="url(#mask0)">
<path fill-rule="evenodd" clip-rule="evenodd" d="M15.84 16.9997H19.908V7.15368H15.84V16.9997ZM16.101 5.77668C15.651 5.38668 15.426 4.89268 15.426 4.29168C15.426 3.69168 15.651 3.19668 16.101 2.80668C16.551 2.41668 17.142 2.22168 17.874 2.22168C18.618 2.22168 19.212 2.40768 19.656 2.77968C20.1 3.15168 20.322 3.63168 20.322 4.21968C20.322 4.84368 20.1 5.35668 19.656 5.75868C19.212 6.16068 18.618 6.36168 17.874 6.36168C17.142 6.36168 16.551 6.16668 16.101 5.77668Z" fill="#2A2A2A"/>
<path fill-rule="evenodd" clip-rule="evenodd" d="M28.2686 12.8506C28.5866 12.5566 28.7456 12.1756 28.7456 11.7076C28.7456 11.2406 28.5866 10.8626 28.2686 10.5746C27.9506 10.2866 27.5516 10.1416 27.0716 10.1416C26.5796 10.1416 26.1746 10.2866 25.8566 10.5746C25.5386 10.8626 25.3796 11.2406 25.3796 11.7076C25.3796 12.1756 25.5416 12.5566 25.8656 12.8506C26.1896 13.1456 26.5916 13.2916 27.0716 13.2916C27.5516 13.2916 27.9506 13.1456 28.2686 12.8506ZM32.7776 7.15463V15.0386C32.7776 16.9106 32.2586 18.3166 31.2206 19.2586C30.1826 20.2016 28.7036 20.6716 26.7836 20.6716C25.7996 20.6716 24.8816 20.5666 24.0296 20.3576C23.1776 20.1466 22.4516 19.8436 21.8516 19.4486L23.2196 16.6756C23.6036 16.9636 24.0896 17.1986 24.6776 17.3776C25.2656 17.5576 25.8296 17.6486 26.3696 17.6486C27.1856 17.6486 27.7796 17.4736 28.1516 17.1256C28.5236 16.7786 28.7096 16.2686 28.7096 15.5956V15.4156C28.0976 16.1126 27.1916 16.4596 25.9916 16.4596C25.1516 16.4596 24.3686 16.2646 23.6426 15.8746C22.9156 15.4856 22.3376 14.9266 21.9056 14.2016C21.4736 13.4746 21.2576 12.6436 21.2576 11.7076C21.2576 10.7726 21.4736 9.94463 21.9056 9.22363C22.3376 8.50363 22.9156 7.94963 23.6426 7.55863C24.3686 7.16863 25.1516 6.97363 25.9916 6.97363C27.3356 6.97363 28.3076 7.40663 28.9076 8.26963V7.15463H32.7776Z" fill="#2A2A2A"/>
<path fill-rule="evenodd" clip-rule="evenodd" d="M34.649 16.9997H38.717V7.15368H34.649V16.9997ZM34.911 5.77668C34.46 5.38668 34.235 4.89268 34.235 4.29168C34.235 3.69168 34.46 3.19668 34.911 2.80668C35.36 2.41668 35.952 2.22168 36.684 2.22168C37.427 2.22168 38.021 2.40768 38.465 2.77968C38.909 3.15168 39.131 3.63168 39.131 4.21968C39.131 4.84368 38.909 5.35668 38.465 5.75868C38.021 6.16068 37.427 6.36168 36.684 6.36168C35.952 6.36168 35.36 6.16668 34.911 5.77668Z" fill="#2A2A2A"/>
<path fill-rule="evenodd" clip-rule="evenodd" d="M47.8438 16.6584C47.2318 17.0064 46.3978 17.1794 45.3418 17.1794C43.9618 17.1794 42.8998 16.8464 42.1558 16.1804C41.4108 15.5144 41.0398 14.5154 41.0398 13.1834V10.6644H39.6898V7.69443H41.0398V4.94043H45.1078V7.69443H47.1228V10.6644H45.1078V13.1484C45.1078 13.4484 45.1858 13.6814 45.3418 13.8494C45.4968 14.0184 45.7008 14.1014 45.9528 14.1014C46.3008 14.1014 46.6078 14.0124 46.8708 13.8324L47.8438 16.6584Z" fill="#2A2A2A"/>
<path fill-rule="evenodd" clip-rule="evenodd" d="M54.1074 14.4976C54.3354 14.3416 54.5034 14.1076 54.6114 13.7956V13.1116H53.6034C52.7754 13.1116 52.3614 13.3886 52.3614 13.9396C52.3614 14.1676 52.4474 14.3566 52.6224 14.5066C52.7954 14.6566 53.0334 14.7316 53.3334 14.7316C53.6214 14.7316 53.8784 14.6536 54.1074 14.4976ZM57.3104 8.13463C58.2224 8.90863 58.6794 10.0996 58.6794 11.7076V16.9996H54.8984V15.7036C54.4314 16.6876 53.5014 17.1796 52.1094 17.1796C51.3284 17.1796 50.6664 17.0446 50.1204 16.7746C49.5744 16.5046 49.1604 16.1386 48.8784 15.6766C48.5954 15.2146 48.4554 14.6956 48.4554 14.1196C48.4554 13.1476 48.8264 12.4096 49.5704 11.9056C50.3144 11.4016 51.4434 11.1496 52.9554 11.1496H54.5924C54.4614 10.3816 53.8424 9.99763 52.7394 9.99763C52.2954 9.99763 51.8444 10.0666 51.3884 10.2046C50.9324 10.3426 50.5434 10.5316 50.2184 10.7716L48.9224 8.08963C49.4864 7.74163 50.1684 7.46863 50.9654 7.27063C51.7634 7.07263 52.5584 6.97363 53.3514 6.97363C55.0794 6.97363 56.3984 7.36063 57.3104 8.13463Z" fill="#2A2A2A"/>
<path fill-rule="evenodd" clip-rule="evenodd" d="M60.516 16.9996H64.583V3.64355H60.516V16.9996Z" fill="#2A2A2A"/>
<path fill-rule="evenodd" clip-rule="evenodd" d="M77.0566 13.7954V16.9994H66.5796V4.39941H76.8226V7.60341H70.7566V9.07941H76.0836V12.1394H70.7566V13.7954H77.0566Z" fill="#2A2A2A"/>
<path fill-rule="evenodd" clip-rule="evenodd" d="M80.0088 16.9106C79.1928 16.7306 78.5328 16.4966 78.0298 16.2086L79.1448 13.5266C79.6008 13.8026 80.1408 14.0186 80.7648 14.1746C81.3888 14.3306 81.9938 14.4086 82.5818 14.4086C83.0508 14.4086 83.3768 14.3696 83.5648 14.2916C83.7498 14.2136 83.8428 14.0966 83.8428 13.9406C83.8428 13.7846 83.7258 13.6766 83.4918 13.6166C83.2578 13.5566 82.8768 13.4966 82.3488 13.4356C81.5448 13.3406 80.8618 13.2176 80.2968 13.0676C79.7328 12.9176 79.2378 12.6266 78.8118 12.1946C78.3858 11.7626 78.1728 11.1446 78.1728 10.3406C78.1728 9.70463 78.3648 9.13463 78.7478 8.63063C79.1328 8.12663 79.7048 7.72363 80.4678 7.42463C81.2298 7.12463 82.1448 6.97363 83.2128 6.97363C83.9568 6.97363 84.6858 7.04363 85.4008 7.18163C86.1128 7.31963 86.7228 7.52063 87.2268 7.78463L86.1118 10.4666C85.2458 9.98663 84.2988 9.74663 83.2668 9.74663C82.3788 9.74663 81.9348 9.90263 81.9348 10.2146C81.9348 10.3706 82.0548 10.4816 82.2948 10.5476C82.5348 10.6136 82.9118 10.6766 83.4288 10.7366C84.2328 10.8326 84.9138 10.9586 85.4718 11.1146C86.0298 11.2706 86.5218 11.5646 86.9468 11.9966C87.3728 12.4286 87.5868 13.0466 87.5868 13.8496C87.5868 14.4626 87.3948 15.0196 87.0108 15.5246C86.6268 16.0286 86.0508 16.4316 85.2828 16.7306C84.5148 17.0306 83.5838 17.1806 82.4918 17.1806C81.6528 17.1806 80.8238 17.0906 80.0088 16.9106Z" fill="#2A2A2A"/>
<path fill-rule="evenodd" clip-rule="evenodd" d="M96.1367 16.6584C95.5247 17.0064 94.6907 17.1794 93.6347 17.1794C92.2537 17.1794 91.1927 16.8464 90.4487 16.1804C89.7037 15.5144 89.3317 14.5154 89.3317 13.1834V10.6644H87.9827V7.69443H89.3317V4.94043H93.4007V7.69443H95.4157V10.6644H93.4007V13.1484C93.4007 13.4484 93.4787 13.6814 93.6347 13.8494C93.7897 14.0184 93.9937 14.1014 94.2457 14.1014C94.5937 14.1014 94.9007 14.0124 95.1637 13.8324L96.1367 16.6584Z" fill="#2A2A2A"/>
<path fill-rule="evenodd" clip-rule="evenodd" d="M102.4 14.4976C102.629 14.3416 102.796 14.1076 102.904 13.7956V13.1116H101.896C101.068 13.1116 100.654 13.3886 100.654 13.9396C100.654 14.1676 100.741 14.3566 100.916 14.5066C101.089 14.6566 101.326 14.7316 101.627 14.7316C101.914 14.7316 102.171 14.6536 102.4 14.4976ZM105.604 8.13463C106.515 8.90863 106.972 10.0996 106.972 11.7076V16.9996H103.192V15.7036C102.724 16.6876 101.795 17.1796 100.402 17.1796C99.6224 17.1796 98.9594 17.0446 98.4144 16.7746C97.8674 16.5046 97.4534 16.1386 97.1714 15.6766C96.8884 15.2146 96.7484 14.6956 96.7484 14.1196C96.7484 13.1476 97.1204 12.4096 97.8644 11.9056C98.6084 11.4016 99.7364 11.1496 101.248 11.1496H102.886C102.754 10.3816 102.136 9.99763 101.033 9.99763C100.588 9.99763 100.138 10.0666 99.6824 10.2046C99.2264 10.3426 98.8364 10.5316 98.5124 10.7716L97.2164 8.08963C97.7804 7.74163 98.4614 7.46863 99.2594 7.27063C100.057 7.07263 100.852 6.97363 101.644 6.97363C103.373 6.97363 104.692 7.36063 105.604 8.13463Z" fill="#2A2A2A"/>
<path fill-rule="evenodd" clip-rule="evenodd" d="M116.063 16.6584C115.451 17.0064 114.617 17.1794 113.561 17.1794C112.18 17.1794 111.119 16.8464 110.375 16.1804C109.63 15.5144 109.258 14.5154 109.258 13.1834V10.6644H107.909V7.69443H109.258V4.94043H113.327V7.69443H115.342V10.6644H113.327V13.1484C113.327 13.4484 113.405 13.6814 113.561 13.8494C113.716 14.0184 113.92 14.1014 114.172 14.1014C114.52 14.1014 114.827 14.0124 115.09 13.8324L116.063 16.6584Z" fill="#2A2A2A"/>
<path fill-rule="evenodd" clip-rule="evenodd" d="M120.958 10.0876C120.682 10.3166 120.502 10.6396 120.418 11.0596H123.586C123.502 10.6516 123.322 10.3306 123.046 10.0966C122.77 9.86263 122.422 9.74563 122.002 9.74563C121.582 9.74563 121.234 9.85963 120.958 10.0876ZM127.33 13.0226H120.49C120.634 13.3946 120.873 13.6786 121.21 13.8766C121.545 14.0746 121.966 14.1736 122.47 14.1736C122.902 14.1736 123.265 14.1196 123.559 14.0116C123.853 13.9036 124.174 13.7176 124.521 13.4536L126.646 15.5956C125.686 16.6516 124.252 17.1796 122.344 17.1796C121.156 17.1796 120.111 16.9606 119.212 16.5236C118.312 16.0846 117.615 15.4766 117.124 14.6956C116.632 13.9156 116.386 13.0396 116.386 12.0676C116.386 11.0836 116.629 10.2046 117.115 9.43063C117.601 8.65663 118.267 8.05363 119.113 7.62163C119.959 7.19063 120.91 6.97363 121.966 6.97363C122.962 6.97363 123.871 7.17163 124.693 7.56763C125.515 7.96363 126.169 8.54563 126.654 9.31463C127.141 10.0816 127.384 10.9996 127.384 12.0676C127.384 12.1276 127.365 12.4456 127.33 13.0226Z" fill="#2A2A2A"/>
</g>
<mask id="mask1" mask-type="alpha" maskUnits="userSpaceOnUse" x="34" y="20" width="94" height="2">
<path fill-rule="evenodd" clip-rule="evenodd" d="M35 20C34.447 20 34 20.447 34 21C34 21.552 34.447 22 35 22H127C127.553 22 128 21.552 128 21C128 20.447 127.553 20 127 20H35Z" fill="white"/>
</mask>
<g mask="url(#mask1)">
<path fill-rule="evenodd" clip-rule="evenodd" d="M29 27H133V15H29V27Z" fill="#00B4A2"/>
</g>
</svg>
